<?xml version="1.0" standalone="no"?>
<!DOCTYPE svg PUBLIC "-//W3C//DTD SVG 20010904//EN"
 "http://www.w3.org/TR/2001/REC-SVG-20010904/DTD/svg10.dtd">
<svg version="1.0" xmlns="http://www.w3.org/2000/svg"
 width="512.000000pt" height="512.000000pt" viewBox="0 0 512.000000 512.000000"
 preserveAspectRatio="xMidYMid meet">

<g transform="translate(0.000000,512.000000) scale(0.100000,-0.100000)"
fill="#000000" stroke="none">
<path d="M2420 5109 c-913 -42 -1747 -594 -2150 -1424 -198 -408 -282 -818
-259 -1266 12 -221 65 -516 105 -576 40 -62 146 -83 212 -43 70 43 87 112 56
240 -89 372 -78 773 30 1146 237 812 899 1412 1736 1573 627 120 1292 -45
1805 -448 90 -70 286 -266 356 -356 321 -409 483 -876 483 -1395 0 -519 -162
-986 -483 -1395 -70 -90 -266 -286 -356 -356 -361 -284 -771 -442 -1243 -480
-375 -30 -783 51 -1139 225 -216 107 -375 216 -555 384 -82 75 -116 90 -186
78 -73 -11 -122 -74 -122 -154 0 -58 17 -88 92 -158 411 -385 927 -622 1483
-684 129 -14 421 -14 550 0 1249 138 2206 1148 2274 2397 52 952 -414 1836
-1228 2330 -436 265 -926 386 -1461 362z"/>
<path d="M2280 4240 c-500 -89 -916 -373 -1180 -807 -240 -392 -305 -898 -175
-1348 161 -554 606 -999 1160 -1160 292 -85 617 -88 913 -10 517 137 955 528
1147 1025 82 213 115 389 115 620 0 453 -161 852 -477 1180 -262 273 -591 443
-973 505 -134 21 -395 19 -530 -5z m390 -300 c371 -33 689 -193 932 -467 223
-252 341 -569 341 -913 0 -524 -274 -976 -743 -1229 -396 -213 -923 -205
-1315 20 -413 237 -667 632 -704 1098 -55 686 396 1303 1067 1460 78 18 135
26 292 40 8 0 67 -4 130 -9z"/>
</g>
</svg>
